<?xml version="1.0" encoding="utf-8"?>
<!-- Generator: Adobe Illustrator 19.2.1, SVG Export Plug-In . SVG Version: 6.00 Build 0)  -->
<svg version="1.1" id="layer" xmlns="http://www.w3.org/2000/svg" xmlns:xlink="http://www.w3.org/1999/xlink" x="0px" y="0px"
	 viewBox="0 0 652 652" style="enable-background:new 0 0 652 652;" xml:space="preserve">
<style type="text/css">
	.st0{fill:#3399FF;}
</style>
<path class="st0" d="M391.5,302.1c-0.2-5.3-2.7-10.2-6.8-13.5c-6.9-5.8-15.8-8.8-24.8-8.3c-9-0.5-17.9,2.4-24.8,8.3
	c-4.1,3.3-6.6,8.2-6.8,13.5c-0.7,6.5-1,13-0.8,19.5c-0.3,6.3,0,12.5,0.8,18.8c0.5,5.4,2.9,10.4,6.8,14.3c6.9,5.8,15.8,8.8,24.8,8.3
	c9,0.5,17.9-2.4,24.8-8.3c4.3-3.5,6.7-8.7,6.8-14.3c0.7-6.2,1-12.5,0.8-18.8C392.9,315.1,392.6,308.5,391.5,302.1z M373.5,321.6
	v10.5c0.7,6.7-4.2,12.7-10.9,13.4c-0.6,0.1-1.3,0.1-1.9,0.1c-6.6,0.5-12.3-4.4-12.8-11c-0.1-0.8,0-1.7,0.1-2.5v-21.8
	c0-7,5.7-12.8,12.8-12.8s12.8,5.7,12.8,12.8V321.6z M323.3,281.1h-22.5l-27,31.5v-31.5H255v81h18.8v-22.5l9-11.3l19.5,33.8h22.5
	l-29.3-48.8L323.3,281.1z M455.3,329.1c8.4-4.7,13.6-13.6,13.5-23.3c0.8-13.3-9.3-24.7-22.6-25.5c-0.7,0-1.4-0.1-2.2,0h-36.8v81.8
	H426v-30.8h12l12,30.8h20.3L455.3,329.1z M441,315.6h-15v-18h15c4.4-0.5,8.5,2.6,9,7.1c0.1,0.6,0.1,1.3,0,1.9c0.3,4.6-3.1,8.7-7.8,9
	C441.8,315.6,441.4,315.6,441,315.6z M480.8,362.1h57v-16.5h-38.3v-15.8h33v-17.3h-33v-15h39v-16.5h-57.8V362.1z M592.5,281.1H573
	l-28.5,81.8h20.3l5.3-16.5h26.3l5.2,16.5H621L592.5,281.1z M574.5,330.6l8.3-28.5l8.3,28.5H574.5z M163.5,302.1
	c-0.5-5.2-2.9-10-6.8-13.5c-6.9-5.8-15.8-8.8-24.8-8.3c-9-0.5-17.9,2.4-24.8,8.3c-4.1,3.3-6.6,8.2-6.8,13.5c-0.7,6.5-1,13-0.8,19.5
	c-0.3,6.3,0,12.5,0.8,18.8c0.8,5.3,3.2,10.2,6.8,14.3c6.9,5.8,15.8,8.8,24.8,8.3c9,0.5,17.9-2.4,24.8-8.3c4.3-3.5,6.7-8.7,6.8-14.3
	c0.7-6.2,1-12.5,0.8-18.8C164.5,315.1,164.2,308.6,163.5,302.1z M144.8,321.6v10.5c0.7,6.7-4.2,12.7-10.9,13.4
	c-0.6,0.1-1.3,0.1-1.9,0.1c-6.6,0.5-12.3-4.4-12.8-11c-0.1-0.8,0-1.7,0.1-2.5v-21.8c-0.8-6.6,3.8-12.6,10.4-13.4
	c0.8-0.1,1.6-0.1,2.4-0.1c6.6-0.5,12.3,4.5,12.8,11.1c0.1,0.8,0,1.6-0.1,2.4V321.6z M230.3,319.3c5.9-3.4,9.6-9.7,9.8-16.5
	c0.3-6.5-2.1-12.7-6.8-17.3c-5.5-4.4-12.6-6.3-19.5-5.3h-35.3v81.8H216c6.8,0.4,13.5-1.7,18.8-6c5.1-4.5,7.9-11.2,7.5-18
	C242.1,330.1,237.4,322.9,230.3,319.3z M197.3,297.6H213c5.3,0,8.3,3,8.3,6.8s-2.2,7.5-9,7.5h-15V297.6z M213,345.6h-15.8v-17.3H213
	c4.1-0.4,7.8,2.5,8.3,6.7c0.1,0.5,0.1,1.1,0,1.6c0.9,4.1-1.7,8-5.8,8.9C214.7,345.7,213.8,345.7,213,345.6z M66,321.6L66,321.6v10.5
	c0.8,6.7-4,12.7-10.7,13.4c-0.2,0-0.4,0-0.6,0.1h-2.3c-6.6,0.5-12.3-4.4-12.8-11c-0.1-0.8,0-1.7,0.1-2.5v-2.3H21
	c0,4.5,0.8,8.3,0.8,10.5c0.8,5.3,3.2,10.2,6.8,14.3c6.9,5.8,15.8,8.8,24.8,8.3h2.3c3.3-0.1,6.6-0.6,9.8-1.5c4.1-0.8,8-2.6,11.3-5.3
	c6.8-5,10.5-13.3,9.7-21.8v-54H66V321.6z"/>
</svg>
